<?xml version="1.0" encoding="utf-8"?>
<!-- Generator: Adobe Illustrator 23.0.1, SVG Export Plug-In . SVG Version: 6.00 Build 0)  -->
<svg version="1.1" id="Layer_1" xmlns="http://www.w3.org/2000/svg" xmlns:xlink="http://www.w3.org/1999/xlink" x="0px" y="0px"
	 viewBox="0 0 300 300" style="enable-background:new 0 0 300 300;" xml:space="preserve">
<style type="text/css">
	.st0{fill:#cbff2e;}
	.st1{fill:#cbff2e;}
	.st2{fill:#cbff2e;}
	.st3{fill:#cbff2e;}
	.st4{fill:#cbff2e;}
	.st5{fill:#cbff2e;}
</style>
<g>
	<path class="st5" d="M92,171.8h62.8v9.7H92V171.8z"/>
	<path class="st5" d="M92,147.6h53.2v9.7H92V147.6z"/>
	<path class="st2" d="M280.5,41.3h-53.2V21.9c0-2.7-2.2-4.8-4.8-4.8h-145c-2.7,0-4.8,2.2-4.8,4.8v19.3H19.5c-8,0-14.5,6.5-14.5,14.5
		v145c0,8,6.5,14.5,14.5,14.5h106.3v29H82.3c-2.7,0-4.8,2.2-4.8,4.8v24.2h-9.7v9.7h164.3v-9.7h-9.7V249c0-2.7-2.2-4.8-4.8-4.8h-43.5
		v-29h106.3c8,0,14.5-6.5,14.5-14.5v-145C295,47.7,288.5,41.3,280.5,41.3z M280.5,50.9c2.7,0,4.8,2.2,4.8,4.8v120.8h-58V122
		l23.4-27.9c5.9-7,6-17.2,0.3-24.4c-5.7-7.2-15.6-9.4-23.8-5.3V50.9H280.5z M190.5,150.9l-14.8-12.4l43.5-51.8L234,99.1L190.5,150.9
		z M172.4,148.3l9.1,7.7l-11,3.8L172.4,148.3z M243.4,88l-3.1,3.7l-14.8-12.4l3.1-3.7c3.4-4.1,9.5-4.6,13.6-1.2
		C246.3,77.8,246.8,83.9,243.4,88z M82.3,26.8h135.3v46.7L165.2,136c-0.6,0.7-0.9,1.5-1.1,2.3l-4.4,27.8c-0.3,1.7,0.4,3.4,1.7,4.5
		s3.1,1.4,4.7,0.9l26.6-9.2c0.8-0.3,1.6-0.8,2.1-1.4l22.8-27.2v57.5H82.3V26.8z M19.5,50.9h53.2v125.7h-58V55.8
		C14.7,53.1,16.8,50.9,19.5,50.9z M212.8,273.3H87.2V254h125.7L212.8,273.3L212.8,273.3z M164.5,244.3h-29v-29h29V244.3z
		 M280.5,205.6h-261c-2.7,0-4.8-2.2-4.8-4.8v-14.5h58v9.7c0,2.7,2.2,4.8,4.8,4.8h145c2.7,0,4.8-2.2,4.8-4.8v-9.7h58v14.5
		C285.3,203.4,283.2,205.6,280.5,205.6z"/>
	<path class="st5" d="M266,191.1h9.7v9.7H266V191.1z"/>
	<path class="st5" d="M92,36.4h19.3v9.7H92V36.4z"/>
	<path class="st2" d="M121,36.4h82.2v9.7H121V36.4z"/>
	<path class="st2" d="M92,60.6h111.2v9.7H92V60.6z"/>
	<path class="st5" d="M92,84.8h9.7v9.7H92V84.8z"/>
	<path class="st5" d="M111.3,84.8h9.7v9.7h-9.7V84.8z"/>
	<path class="st2" d="M130.7,84.8h53.2v9.7h-53.2V84.8z"/>
	<path class="st2" d="M92,108.9h29v9.7H92V108.9z"/>
	<path class="st5" d="M130.7,108.9h33.8v9.7h-33.8V108.9z"/>
</g>
</svg>
