<svg width="224" height="24" viewBox="0 0 224 24" fill="none" xmlns="http://www.w3.org/2000/svg">
<g clip-path="url(#clip0_4104_580)">
<path d="M46.1999 7.12495C45.1499 6.82495 44.2499 6.67495 43.4999 6.67495C42.5999 6.67495 41.9249 6.82495 41.3999 7.12495C40.8749 7.42495 40.6499 7.87495 40.6499 8.39995C40.6499 8.92495 40.7999 9.29995 41.1749 9.67495C41.5499 9.97495 41.9999 10.275 42.5249 10.5C43.0499 10.725 43.7999 10.95 44.6999 11.175C45.9749 11.5499 47.0249 11.9249 47.9249 12.2249C48.7499 12.5999 49.4999 13.1249 50.0249 13.7999C50.6249 14.4749 50.9249 15.45 50.9249 16.575C50.9249 17.7 50.6249 18.5999 49.9499 19.4249C49.3499 20.2499 48.4499 20.8499 47.3249 21.2999C46.1999 21.7499 44.9249 21.9749 43.4999 21.9749C41.9999 21.9749 40.5749 21.6749 39.1499 21.2249C37.7249 20.6999 36.4499 20.025 35.3999 19.1249L36.8999 16.2C37.8749 17.025 38.9249 17.7 40.1249 18.15C41.3249 18.5999 42.4499 18.9 43.4999 18.9C44.5499 18.9 45.2999 18.7499 45.8999 18.3749C46.4999 17.9999 46.7999 17.4749 46.7999 16.8749C46.7999 16.3499 46.6499 15.8999 46.2749 15.5999C45.8999 15.2999 45.4499 15 44.9249 14.775C44.3999 14.55 43.6499 14.3249 42.6749 14.0999C41.3999 13.7249 40.3499 13.3499 39.5249 13.0499C38.6999 12.6749 38.0249 12.15 37.4249 11.475C36.8249 10.8 36.5249 9.82495 36.5249 8.69995C36.5249 7.64995 36.8249 6.74995 37.4249 5.92495C38.0249 5.17495 38.8499 4.49995 39.9749 4.12495C41.0249 3.67495 42.2999 3.44995 43.7249 3.44995C44.9999 3.44995 46.1999 3.59995 47.3999 3.97495C48.5999 4.34995 49.7249 4.79995 50.6249 5.39995L49.1249 8.39995C48.2249 7.87495 47.2499 7.42495 46.1999 7.12495Z" fill="white"/>
<path d="M76.4251 4.42505H79.9501L73.9501 21.225H70.4251L66.3001 8.47505L62.1751 21.225H58.7251L52.7251 4.42505H56.3251L60.5251 17.7L64.7251 4.42505H68.1001L72.3001 17.775L76.4251 4.42505Z" fill="white"/>
<path d="M82.6499 4.42505H95.9999V7.20005H86.1749V11.4H94.9499V14.175H86.1749V18.375H96.2999V21.225H82.6499V4.42505Z" fill="white"/>
<path d="M113.025 4.42505H116.325V21.225H113.1L104.1 9.67505V21.225H100.875V4.42505H104.025L113.025 15.975V4.42505Z" fill="white"/>
<path d="M130.05 7.87505C129.075 7.57505 128.25 7.42505 127.5 7.42505C126.675 7.42505 126 7.57505 125.55 7.87505C125.1 8.17505 124.8 8.55005 124.8 9.07505C124.8 9.52505 124.95 9.97505 125.325 10.275C125.625 10.575 126.075 10.875 126.6 11.025C127.125 11.25 127.8 11.475 128.7 11.7C129.9 12.075 130.95 12.375 131.7 12.75C132.45 13.125 133.125 13.575 133.725 14.25C134.25 14.925 134.55 15.825 134.55 16.875C134.55 17.925 134.25 18.825 133.65 19.65C133.05 20.4 132.225 21 131.175 21.4501C130.125 21.8251 128.925 22.05 127.575 22.05C126.15 22.05 124.8 21.825 123.45 21.3C122.1 20.775 120.975 20.1 119.925 19.275L121.35 16.5C122.25 17.325 123.3 17.925 124.425 18.375C125.55 18.825 126.6 19.05 127.575 19.05C128.55 19.05 129.3 18.9 129.825 18.525C130.35 18.15 130.65 17.7 130.65 17.1C130.65 16.575 130.5 16.2 130.125 15.9C129.825 15.6 129.375 15.3 128.85 15.15C128.325 14.925 127.65 14.7 126.75 14.475C125.55 14.1 124.5 13.8 123.75 13.5C123 13.2 122.325 12.675 121.8 12C121.275 11.325 120.975 10.5 120.975 9.37505C120.975 8.40005 121.275 7.50005 121.8 6.75005C122.325 6.00005 123.15 5.40005 124.2 5.02505C125.25 4.65005 126.375 4.42505 127.725 4.42505C128.925 4.42505 130.05 4.57505 131.175 4.95005C132.3 5.25005 133.35 5.70005 134.25 6.30005L132.825 9.15005C132 8.55005 131.025 8.17505 130.05 7.87505Z" fill="white"/>
<path d="M143.775 8.10005C142.8 8.62505 142.125 9.30005 141.525 10.2C141 11.1 140.7 12.075 140.7 13.125C140.7 14.175 141 15.225 141.525 16.125C142.05 17.025 142.8 17.7 143.775 18.225C144.675 18.75 145.725 18.975 146.775 18.975C147.825 18.975 148.875 18.75 149.775 18.225C150.675 17.7 151.425 17.025 151.95 16.125C152.475 15.225 152.775 14.25 152.775 13.125C152.775 12 152.475 11.025 151.95 10.2C151.425 9.30005 150.675 8.62505 149.775 8.10005C148.875 7.57505 147.825 7.35005 146.775 7.35005C145.725 7.35005 144.675 7.65005 143.775 8.10005ZM151.575 5.55005C153 6.30005 154.2 7.35005 155.025 8.70005C155.85 10.05 156.3 11.55 156.3 13.2C156.3 14.85 155.85 16.35 155.025 17.7C154.2 19.05 153.075 20.1 151.575 20.925C150.15 21.675 148.5 22.125 146.7 22.125C144.9 22.125 143.325 21.75 141.825 20.925C140.4 20.175 139.2 19.05 138.375 17.7C137.55 16.35 137.1 14.85 137.1 13.2C137.1 11.55 137.55 10.05 138.375 8.70005C139.2 7.35005 140.325 6.30005 141.825 5.55005C143.25 4.80005 144.9 4.42505 146.7 4.42505C148.5 4.42505 150.15 4.80005 151.575 5.55005Z" fill="white"/>
<path d="M173.025 4.42505H176.25V21.225H173.1L164.1 9.67505V21.225H160.8V4.42505H164.025L173.025 15.975V4.42505Z" fill="white"/>
<path d="M189 4.42505H192.375V11.55H201.075V4.42505H204.45V21.225H201.075V14.4H192.375V21.225H189V4.42505Z" fill="white"/>
<path d="M209.498 4.41504H222.923V7.34004H213.023V11.69H221.873V14.615H213.023V18.965H223.223V21.89H209.498V4.41504Z" fill="white"/>
<path d="M3.6002 7.05C5.547 7.05 7.1252 5.4718 7.1252 3.525C7.1252 1.5782 5.547 0 3.6002 0C1.65339 0 0.0751953 1.5782 0.0751953 3.525C0.0751953 5.4718 1.65339 7.05 3.6002 7.05Z" fill="#1363AA"/>
<path d="M12.7501 7.05C14.6969 7.05 16.2751 5.4718 16.2751 3.525C16.2751 1.5782 14.6969 0 12.7501 0C10.8033 0 9.2251 1.5782 9.2251 3.525C9.2251 5.4718 10.8033 7.05 12.7501 7.05Z" fill="#6791C0"/>
<path d="M21.8253 7.05C23.7721 7.05 25.3503 5.4718 25.3503 3.525C25.3503 1.5782 23.7721 0 21.8253 0C19.8785 0 18.3003 1.5782 18.3003 3.525C18.3003 5.4718 19.8785 7.05 21.8253 7.05Z" fill="#91B0D1"/>
<path d="M3.6002 15.4499C5.547 15.4499 7.1252 13.8717 7.1252 11.9249C7.1252 9.9781 5.547 8.3999 3.6002 8.3999C1.65339 8.3999 0.0751953 9.9781 0.0751953 11.9249C0.0751953 13.8717 1.65339 15.4499 3.6002 15.4499Z" fill="#6791C0"/>
<path d="M12.7501 15.4499C14.6969 15.4499 16.2751 13.8717 16.2751 11.9249C16.2751 9.9781 14.6969 8.3999 12.7501 8.3999C10.8033 8.3999 9.2251 9.9781 9.2251 11.9249C9.2251 13.8717 10.8033 15.4499 12.7501 15.4499Z" fill="#91B0D1"/>
<path d="M21.8253 15.4499C23.7721 15.4499 25.3503 13.8717 25.3503 11.9249C25.3503 9.9781 23.7721 8.3999 21.8253 8.3999C19.8785 8.3999 18.3003 9.9781 18.3003 11.9249C18.3003 13.8717 19.8785 15.4499 21.8253 15.4499Z" fill="#BDCFE4"/>
<path d="M3.6002 23.85C5.547 23.85 7.1252 22.2719 7.1252 20.325C7.1252 18.3782 5.547 16.8 3.6002 16.8C1.65339 16.8 0.0751953 18.3782 0.0751953 20.325C0.0751953 22.2719 1.65339 23.85 3.6002 23.85Z" fill="#91B0D1"/>
<path d="M12.7501 23.85C14.6969 23.85 16.2751 22.2719 16.2751 20.325C16.2751 18.3782 14.6969 16.8 12.7501 16.8C10.8033 16.8 9.2251 18.3782 9.2251 20.325C9.2251 22.2719 10.8033 23.85 12.7501 23.85Z" fill="#BDCFE4"/>
<path d="M21.8253 23.85C23.7721 23.85 25.3503 22.2719 25.3503 20.325C25.3503 18.3782 23.7721 16.8 21.8253 16.8C19.8785 16.8 18.3003 18.3782 18.3003 20.325C18.3003 22.2719 19.8785 23.85 21.8253 23.85Z" fill="#E8EFF6"/>
</g>
<defs>
<clipPath id="clip0_4104_580">
<rect width="223.5" height="24" fill="white"/>
</clipPath>
</defs>
</svg>
