<svg xmlns="http://www.w3.org/2000/svg" width="45.271" height="45.271" viewBox="0 0 45.271 45.271"><defs><style>.a{fill:#f3f9ff;}.b{fill:#ff6250;}.c{fill:#ffdf90;}.d{fill:#36f;}</style></defs><g transform="translate(-376 -2768)"><rect class="a" width="45.271" height="45.271" rx="10" transform="translate(376 2768)"/><g transform="translate(500.391 2742.435)"><path class="b" d="M-111.253,37.565h18.472a.129.129,0,0,1,.067.016.131.131,0,0,1,.051.046.136.136,0,0,1,.021.065.129.129,0,0,1-.014.067,20.716,20.716,0,0,1-6.966,7.973,21.31,21.31,0,0,1-11.629,3.592.127.127,0,0,1-.053-.009.137.137,0,0,1-.045-.029.132.132,0,0,1-.03-.045.143.143,0,0,1-.01-.053V37.7a.136.136,0,0,1,.01-.052.132.132,0,0,1,.03-.045.141.141,0,0,1,.045-.03A.139.139,0,0,1-111.253,37.565Z" transform="translate(0)"/><path class="c" d="M-107.267,61.2a4.126,4.126,0,0,0,4.125-4.125,4.125,4.125,0,0,0-4.125-4.124,4.124,4.124,0,0,0-4.124,4.124A4.125,4.125,0,0,0-107.267,61.2Z" transform="translate(0 -2.185)"/><path class="d" d="M-97.006,60.1A2.3,2.3,0,0,1-98.4,57.236l3.114-8.886A2.15,2.15,0,0,1-92.45,47.1a2.3,2.3,0,0,1,1.393,2.867l-3.114,8.885A2.149,2.149,0,0,1-97.006,60.1Z" transform="translate(-1.828 -1.332)"/></g></g></svg>