<svg xmlns="http://www.w3.org/2000/svg" width="45.271" height="45.271" viewBox="0 0 45.271 45.271"><defs><style>.a{fill:#f3f9ff;}.b{fill:#f8761f;}</style></defs><g transform="translate(-380 -1184)"><rect class="a" width="45.271" height="45.271" rx="10" transform="translate(380 1184)"/><path class="b" d="M22.285,10.441a5.579,5.579,0,0,0-2.027-2.014,5.466,5.466,0,0,0-2.051-.711V5.038A1.962,1.962,0,0,0,19.418,3.2a2.013,2.013,0,0,0-2-2.023h-.01A2.029,2.029,0,0,0,15.376,3.2a1.937,1.937,0,0,0,1.186,1.84V7.7a5.861,5.861,0,0,0-1.784.56L7.608,2.832A2.291,2.291,0,0,0,7.7,2.241,2.259,2.259,0,1,0,6.614,4.154l.469.355,6.431,4.637a5.354,5.354,0,0,0-.91,1.067,4.98,4.98,0,0,0-.827,2.683v.2a5.618,5.618,0,0,0,.352,1.939,5.065,5.065,0,0,0,.834,1.449l-2.137,2.141a1.729,1.729,0,1,0,1.056,1.1l2.207-2.207a5.527,5.527,0,0,0,.981.537,5.738,5.738,0,0,0,2.3.483h.151a5.5,5.5,0,0,0,4.672-2.6,5.064,5.064,0,0,0,.8-2.733v-.05a5.379,5.379,0,0,0-.7-2.724Zm-2.695,4.632a2.808,2.808,0,0,1-2.066,1.077h-.148a2.771,2.771,0,0,1-1.3-.347,3.019,3.019,0,0,1-1.144-1.041,2.428,2.428,0,0,1-.476-1.417v-.151a3.013,3.013,0,0,1,1.4-2.576,2.611,2.611,0,0,1,1.476-.444h.05a3,3,0,0,1,1.387.318,2.937,2.937,0,0,1,1.09.991,3.15,3.15,0,0,1,.488,1.392l.012.314a2.755,2.755,0,0,1-.783,1.888Z" transform="translate(389.777 1196)"/></g></svg>