<svg xmlns="http://www.w3.org/2000/svg" width="45.271" height="45.271" viewBox="0 0 45.271 45.271"><defs><style>.a{fill:#f3f9ff;}</style></defs><g transform="translate(-380 -719)"><rect class="a" width="45.271" height="45.271" rx="10" transform="translate(380 719)"/><g transform="translate(346.879 698.016)"><path d="M62.127,42.988a2.044,2.044,0,0,1,.525,0,1.776,1.776,0,0,0,.028-.994c-.124-.6-.3-.972-.65-.915s-.367.5-.237,1.1a1.946,1.946,0,0,0,.333.808Zm-3.033.48c.254.113.407.186.469.119.107-.107-.2-.531-.683-.74a1.784,1.784,0,0,0-1.734.209c-.169.124-.328.294-.305.4.051.209.565-.153,1.282-.2a2,2,0,0,1,.972.209Zm-.508.288c-.514.079-.847.367-.763.57.051.017.068.045.294-.045a2.121,2.121,0,0,1,1.062-.113c.164.017.243.028.282-.028.073-.119-.328-.446-.876-.384Zm3.061.972c.192-.39-.616-.791-.808-.4s.621.785.808.4Zm.887-1.158c-.435-.006-.452.892-.017.9s.458-.9.017-.9ZM50.152,48.032a.422.422,0,0,1-.48-.136c-.294-.452.627-1.152.169-2.028a1.211,1.211,0,0,0-1.983-.316c-.491.542-.491,1.333-.282,1.361.243.034.232-.367.418-.661A.724.724,0,0,1,49,46.038a.006.006,0,0,1,.006.006c.655.429.079,1.005.13,1.621.079.943,1.045.926,1.22.508a.12.12,0,0,0-.011-.13c0,.062.034-.062-.192-.011Zm16.968-.966a10.02,10.02,0,0,0-.384-1.164,1.887,1.887,0,0,0-.175-2.446,5.668,5.668,0,0,0-2.327-1.051c-.085-.644.265-3.321-1.22-4.7a5.867,5.867,0,0,0,1.909-3.717c-.006-2.214-2.728-2.886-6.083-1.5l-.712.3-1.3-1.277C53,28.184,41.041,41.474,44.865,44.705l.836.706a4.092,4.092,0,0,0-.232,1.9,4,4,0,0,0,3.824,3.417c3.27,7.535,15.166,7.546,18.245.169a7.669,7.669,0,0,0,.514-2.4c0-1.005-.57-1.429-.932-1.429ZM49.226,49.795A3.078,3.078,0,0,1,46.4,47.219c-.35-3.468,4.2-4.259,4.756-.7.26,1.678-.265,3.31-1.932,3.276Zm-1.045-6.468A3.3,3.3,0,0,0,46.1,44.655a5.847,5.847,0,0,1-.881-.847c-.734-1.406.808-4.135,1.887-5.671,2.666-3.807,6.84-6.688,8.778-6.168a7.576,7.576,0,0,1,1.356,1.294,27.14,27.14,0,0,0-3.722,2.57,16.872,16.872,0,0,0-5.338,7.5ZM61.7,49.055a9.052,9.052,0,0,1-3.937-.4c.35-1.141,1.531.345,5.456-.779a8.828,8.828,0,0,0,2.886-1.435,5.62,5.62,0,0,1,.4,1.373c.209-.04.808-.028.65,1.022a5.276,5.276,0,0,1-1.469,2.881,6.118,6.118,0,0,1-1.762,1.322,7.653,7.653,0,0,1-1.152.486c-3.028.988-6.129-.1-7.134-2.435a4.625,4.625,0,0,1-.2-.554,4.859,4.859,0,0,1,1.068-4.553.425.425,0,0,0,.141-.271.484.484,0,0,0-.107-.26c-.4-.576-1.768-1.553-1.491-3.446a2.575,2.575,0,0,1,2.5-2.259l.282.017c.48.028.9.09,1.294.107a2.582,2.582,0,0,0,1.96-.655,1.494,1.494,0,0,1,.751-.424.989.989,0,0,1,.768.124c.565.378.644,1.288.672,1.954.017.378.062,1.3.079,1.565.034.6.192.689.514.791.181.062.35.1.593.175a3.462,3.462,0,0,1,1.474.695.946.946,0,0,1,.271.525c.09.644-.5,1.44-2.056,2.158a10.582,10.582,0,0,1-5.688.774c-1.141-.153-1.791,1.322-1.107,2.327,1.282,1.892,6.931,1.13,8.569-1.209.04-.056.006-.09-.04-.056-2.367,1.615-5.5,2.163-7.275,1.474-.271-.107-.836-.367-.9-.943a5.958,5.958,0,0,0,4.022.04s.124-.147-.023-.13Zm-8.6-10.936a11.136,11.136,0,0,1,3.163-2.581.04.04,0,0,1,.056.017.048.048,0,0,1,0,.04,3.051,3.051,0,0,0-.294.717.044.044,0,0,0,.034.051.037.037,0,0,0,.034-.006,6.144,6.144,0,0,1,2.773-.977.044.044,0,0,1,.045.04.051.051,0,0,1-.017.04,2.145,2.145,0,0,0-.435.441.039.039,0,0,0,.011.056.034.034,0,0,0,.023.006,5.444,5.444,0,0,1,2.322.61c.045.023.011.107-.034.1a9.707,9.707,0,0,0-7.614,1.519.052.052,0,0,1-.062-.011c-.017-.023-.017-.045-.006-.056Z" transform="translate(0 0)"/></g></g></svg>